<svg width="359" height="227" viewBox="0 0 359 227" fill="none" xmlns="http://www.w3.org/2000/svg">
<path d="M354.919 0.328672C357.978 0.111304 359.556 -0.416398 355.896 0.621325C355.687 0.681963 235.551 35.5348 156.553 58.345C155.334 58.6851 155.067 59.534 156.332 60.2522L318.881 152.619C323.767 155.534 324.973 161.12 323.102 165.63L304.012 208.144C302.868 210.738 299.873 216.211 290.329 218.579L264.439 225.267C259.927 226.389 258.099 225.828 243.854 225.473C228.224 225.084 155.644 224.545 122.227 224.93C75.762 225.466 3.29019 226.122 3.09631 226.124C-1.10401 226.01 -0.813369 226.407 2.65893 225.529C2.65893 225.529 64.6775 209.177 104.822 199.163C182.407 179.808 207.298 174.466 207.298 174.466C207.817 174.343 208.171 174.201 209.168 174.314L247.431 178.656C252.088 179.185 253.773 179.194 248.574 176.062L75.1502 78.6467C69.1199 75.4196 67.3526 70.3149 71.9483 62.6633L90.1849 28.9529C93.117 24.0185 96.8187 21.1696 107.528 20.3869C107.528 20.3869 274.28 6.05801 354.919 0.328672Z" fill="black" fill-opacity="0.9"/>
<path d="M354.919 0.328672C357.978 0.111304 359.556 -0.416398 355.896 0.621325C355.687 0.681963 235.551 35.5348 156.553 58.345C155.334 58.6851 155.067 59.534 156.332 60.2522L318.881 152.619C323.767 155.534 324.973 161.12 323.102 165.63L304.012 208.144C302.868 210.738 299.873 216.211 290.329 218.579L264.439 225.267C259.927 226.389 258.099 225.828 243.854 225.473C228.224 225.084 155.644 224.545 122.227 224.93C75.762 225.466 3.29019 226.122 3.09631 226.124C-1.10401 226.01 -0.813369 226.407 2.65893 225.529C2.65893 225.529 64.6775 209.177 104.822 199.163C182.407 179.808 207.298 174.466 207.298 174.466C207.817 174.343 208.171 174.201 209.168 174.314L247.431 178.656C252.088 179.185 253.773 179.194 248.574 176.062L75.1502 78.6467C69.1199 75.4196 67.3526 70.3149 71.9483 62.6633L90.1849 28.9529C93.117 24.0185 96.8187 21.1696 107.528 20.3869C107.528 20.3869 274.28 6.05801 354.919 0.328672Z" stroke="white"/>
</svg>
