<svg width="236" height="211" viewBox="0 0 236 211" fill="none" xmlns="http://www.w3.org/2000/svg">
<path d="M233.013 0.536133C235.163 0.0896128 236.238 -0.469741 233.729 0.679688C233.61 0.735552 151.303 39.097 97.1748 64.2354C96.3385 64.6138 96.219 65.3092 97.1748 65.7637L219.99 124.238C223.694 126.106 225.008 130.416 224.053 134.151L214.018 169.495C213.42 171.65 211.747 176.248 205.177 178.978L187.375 186.593C184.269 187.885 182.927 187.605 172.8 188.604C161.689 189.699 110.197 195.787 86.542 199.092C53.6056 203.693 2.19531 210.729 2.19531 210.729C-0.791159 211.017 -0.552348 211.303 1.83691 210.298C1.83691 210.298 44.4536 191.796 72.0859 180.271C125.489 157.996 142.693 151.536 142.693 151.536C143.052 151.393 143.29 151.249 144.007 151.249H171.485C174.831 151.249 176.025 151.105 172.083 149.094L41.1426 87.6016C36.603 85.5901 34.9304 81.711 37.5586 75.2461L47.7139 46.9424C49.3865 42.7759 51.7761 40.1898 59.3027 38.6094C59.4976 38.5656 176.371 12.2969 233.013 0.536133Z" fill="white"/>
<path d="M233.013 0.536133C235.163 0.0896128 236.238 -0.469741 233.729 0.679688C233.61 0.735552 151.303 39.097 97.1748 64.2354C96.3385 64.6138 96.219 65.3092 97.1748 65.7637L219.99 124.238C223.694 126.106 225.008 130.416 224.053 134.151L214.018 169.495C213.42 171.65 211.747 176.248 205.177 178.978L187.375 186.593C184.269 187.885 182.927 187.605 172.8 188.604C161.689 189.699 110.197 195.787 86.542 199.092C53.6056 203.693 2.19531 210.729 2.19531 210.729C-0.791159 211.017 -0.552348 211.303 1.83691 210.298C1.83691 210.298 44.4536 191.796 72.0859 180.271C125.489 157.996 142.693 151.536 142.693 151.536C143.052 151.393 143.29 151.249 144.007 151.249H171.485C174.831 151.249 176.025 151.105 172.083 149.094L41.1426 87.6016C36.603 85.5901 34.9304 81.711 37.5586 75.2461L47.7139 46.9424C49.3865 42.7759 51.7761 40.1898 59.3027 38.6094C59.4976 38.5656 176.371 12.2969 233.013 0.536133Z" stroke="white"/>
</svg>
